# xmcd
#
# Track frame offsets:
#	150
#	18022
#	33225
#	52112
#	66250
#	81852
#	98350
#	117592
#	133800
#	157465
#	176572
#
# Disc length: 2656 seconds
#
# Revision: 1
# Processed by: cddbd v1.5PL3 Copyright (c) Steve Scherf et al.
# Submitted via: audiograbber 1.83.01
#
DISCID=930a5e0b
DTITLE=Evgeniy Getmansriy - Legendarnye Pesni
DYEAR=1900
DGENRE=Pop
TTITLE0=Evgeniy Getmansriy - Legendarnye Pesni - "Kto Tbe Skazal"
TTITLE1=Evgeniy Getmansriy - Legendarnye Pesni - Esli ti lybish"
TTITLE2=Evgeniy Getmansriy - Legendarnye Pesni - Net Tebya Prekrasney"
TTITLE3=Evgeniy Getmansriy - Legendarnye Pesni - "Vot Yvidish"
TTITLE4=Evgeniy Getmansriy - Legendarnye Pesni - "Lydi Vstrechaytsa"
TTITLE5=Evgeniy Getmansriy - Legendarnye Pesni - "Chestno Govorya"
TTITLE6=Evgeniy Getmansriy - Legendarnye Pesni - "Aleshkina Lybov"
TTITLE7=Evgeniy Getmansriy - Legendarnye Pesni - "Gde Ge Ti Byla"
TTITLE8=Evgeniy Getmansriy - Legendarnye Pesni - "Po Provodam"
TTITLE9=Evgeniy Getmansriy - Legendarnye Pesni - "Y Lybvi Glaza Razlyki"
TTITLE10=Evgeniy Getmansriy - Legendarnye Pesni - "Vmeste"
EXTD=
EXTT0=
EXTT1=
EXTT2=
EXTT3=
EXTT4=
EXTT5=
EXTT6=
EXTT7=
EXTT8=
EXTT9=
EXTT10=
PLAYORDER=
